# xmcd CD database file
#
# Track frame offsets:
#	150
#	24924
#	47340
#	66879
#	89159
#	111226
#	134704
#	153515
#	178066
#	200433
#	220397
#	246738
#	268673
#	288271
#	307538
#
# Disc length: 4408 seconds
#
# Revision: 0
# Processed by: cddbd v1.5PL3 Copyright (c) Steve Scherf et al.
# Submitted via: freeDB plugin v1.0
#
DISCID=e111360f
DTITLE=Every Little Thing - Ｅｖｅｒｙ　Ｂｅｓｔ　Ｓｉｎｇｌｅ　２
DYEAR=1900
DGENRE=Rock
TTITLE0=Ｐｒａｙ
TTITLE1=ｓｕｒｅ
TTITLE2=Ｒｅｓｃｕｅ　ｍｅ
TTITLE3=愛のカケラ
TTITLE4=ｆｒａｇｉｌｅ
TTITLE5=Ｇｒａｃｅｆｕｌ　Ｗｏｒｌｄ
TTITLE6=ｊｕｍｐ
TTITLE7=キヲク
TTITLE8=ささやかな祈り
TTITLE9=ＵＮＳＰＥＡＫＡＢＬＥ
TTITLE10=ｎｏｓｔａｌｇｉａ
TTITLE11=Ｇｒｉｐ！
TTITLE12=ファンダメンタル・ラブ
TTITLE13=Ｆｏｒ　ｔｈｅ　ｍｏｍｅｎｔ（アコースティックヴァージョン／ボーナス・トラック）
TTITLE14=出逢った頃のように（アコースティックヴァージョン／ボーナス・トラック）
EXTD=
EXTT0=
EXTT1=
EXTT2=
EXTT3=
EXTT4=
EXTT5=
EXTT6=
EXTT7=
EXTT8=
EXTT9=
EXTT10=
EXTT11=
EXTT12=
EXTT13=
EXTT14=
PLAYORDER=
